# xmcd
#
# Track frame offsets: 
#        150
#        28362
#        48024
#        66960
#        84500
#        102359
#        121812
#        144038
#        163295
#        179166
#        197495
#        215459
#        233830
#        248696
#        269465
#        283541
#        302719
#
# Disc length: 4253 seconds
#
# Revision: 0
# Processed by: cddbd v1.5.2PL0 Copyright (c) Steve Scherf et al.
# Submitted via: ExactAudioCopy v1.0b3
#
DISCID=f3109b11
DTITLE=Los Chiquinquireños - Dios Vive
DYEAR=2011
DGENRE=Gaita Zuliana
TTITLE0=Dios Vive
TTITLE1=Barriada Chiquinquireña
TTITLE2=Primaveral
TTITLE3=La Campeona De La Salud
TTITLE4=Santa María
TTITLE5=Los Harapientos
TTITLE6=Tu Eterno Joyero
TTITLE7=Viejita Chiquinquireña
TTITLE8=Ruego
TTITLE9=Me Tocaste El Corazón
TTITLE10=Cielo Chiquinquireño
TTITLE11=Solo Quiero Conocerla
TTITLE12=No Hay Madre Como Vos
TTITLE13=Tu Himno Entre Mis Brazos
TTITLE14=Chiquinquireño Fiel
TTITLE15=Cuídanos Chinita
TTITLE16=Empedranzas
EXTD=
EXTT0=
EXTT1=
EXTT2=
EXTT3=
EXTT4=
EXTT5=
EXTT6=
EXTT7=
EXTT8=
EXTT9=
EXTT10=
EXTT11=
EXTT12=
EXTT13=
EXTT14=
EXTT15=
EXTT16=
PLAYORDER=
